<svg width="23" height="23" viewBox="0 0 23 23" fill="none" xmlns="http://www.w3.org/2000/svg">
<path d="M11.0929 2.46788C11.1463 2.41433 11.2098 2.37185 11.2796 2.34286C11.3495 2.31387 11.4244 2.29895 11.5 2.29895C11.5756 2.29895 11.6505 2.31387 11.7204 2.34286C11.7902 2.37185 11.8537 2.41433 11.9071 2.46788C12.5177 3.07968 13.9817 4.84148 15.295 6.95633C16.5945 9.04933 17.825 11.6138 17.825 13.8C17.825 15.9206 17.2178 17.6548 16.0885 18.8646C14.958 20.0778 13.3584 20.7 11.5 20.7C9.64274 20.7 8.04309 20.0778 6.91149 18.8646C5.78104 17.6548 5.17499 15.9206 5.17499 13.8C5.17499 11.6127 6.40549 9.05048 7.70499 6.95633C9.01829 4.84033 10.4822 3.08083 11.0929 2.46788Z" fill="#EFEDFD"/>
</svg>
