<svg width="24" height="24" viewBox="0 0 24 24" fill="none" xmlns="http://www.w3.org/2000/svg">
<path d="M12.0667 7.33334C9.46666 7.33334 7.39999 9.40001 7.39999 12C7.39999 14.6 9.46666 16.6667 12.0667 16.6667C14.6667 16.6667 16.7333 14.6 16.7333 12C16.7333 9.40001 14.6667 7.33334 12.0667 7.33334ZM12.0667 15.3333C10.2 15.3333 8.73333 13.8667 8.73333 12C8.73333 10.1333 10.2 8.66668 12.0667 8.66668C13.9333 8.66668 15.4 10.1333 15.4 12C15.4 13.8667 13.9333 15.3333 12.0667 15.3333Z" fill="currentColor"/>
<path d="M21.8667 9.80001L20 9.20001L19.6 8.20001L20.5333 6.46668C20.7333 6.06668 20.6667 5.53334 20.3333 5.20001L18.7333 3.60001C18.4 3.26668 17.8667 3.20001 17.4667 3.40001L15.7333 4.33334L14.7333 3.93334L14.1333 2.06668C14 1.66668 13.6 1.33334 13.1333 1.33334H10.8667C10.4 1.33334 9.99999 1.66668 9.93333 2.13334L9.33333 4.00001C8.93333 4.06668 8.59999 4.20001 8.26666 4.40001L6.53333 3.46668C6.13333 3.26668 5.59999 3.33334 5.26666 3.66668L3.66666 5.26668C3.33333 5.60001 3.26666 6.13334 3.46666 6.53334L4.33333 8.20001C4.19999 8.53334 4.06666 8.93334 3.93333 9.26668L2.06666 9.86668C1.66666 10 1.33333 10.4 1.33333 10.8667V13.1333C1.33333 13.6 1.66666 14 2.13333 14.1333L3.99999 14.7333L4.39999 15.7333L3.46666 17.4667C3.26666 17.8667 3.33333 18.4 3.66666 18.7333L5.26666 20.3333C5.59999 20.6667 6.13333 20.7333 6.53333 20.5333L8.26666 19.6L9.26666 20L9.86666 21.9333C9.99999 22.3333 10.4 22.6667 10.8667 22.6667H13.1333C13.6 22.6667 14 22.3333 14.1333 21.9333L14.7333 20L15.7333 19.6L17.4667 20.5333C17.8667 20.7333 18.4 20.6667 18.7333 20.3333L20.3333 18.7333C20.6667 18.4 20.7333 17.8667 20.5333 17.4667L19.6 15.7333L20 14.7333L21.9333 14.1333C22.3333 14 22.6667 13.6 22.6667 13.1333V10.8667C22.6667 10.4 22.3333 9.93334 21.8667 9.80001ZM21.3333 12.9333L18.9333 13.6667L18.8667 14L18.2667 15.4L18.0667 15.7333L19.2667 17.9333L17.9333 19.2667L15.7333 18.0667L15.4 18.2667C14.9333 18.5333 14.4667 18.7333 14 18.8667L13.6667 18.9333L12.9333 21.3333H11.0667L10.3333 18.9333L9.99999 18.8667L8.59999 18.2667L8.26666 18.0667L6.06666 19.2667L4.73333 17.9333L5.93333 15.7333L5.73333 15.4C5.46666 14.9333 5.26666 14.4667 5.13333 14L5.06666 13.6667L2.66666 12.9333V11.0667L4.93333 10.4L5.06666 10.0667C5.19999 9.53334 5.39999 9.06668 5.66666 8.60001L5.86666 8.26668L4.73333 6.06668L6.06666 4.73334L8.19999 5.93334L8.53333 5.73334C8.99999 5.46668 9.46666 5.26668 9.99999 5.13334L10.3333 5.00001L11.0667 2.66668H12.9333L13.6667 5.00001L14 5.13334C14.4667 5.26668 14.9333 5.46668 15.4 5.73334L15.7333 5.93334L17.9333 4.73334L19.2667 6.06668L18.0667 8.26668L18.2667 8.60001C18.5333 9.06668 18.7333 9.53334 18.8667 10L18.9333 10.3333L21.3333 11.0667V12.9333Z" fill="currentColor"/>
</svg>
